# xmcd
#
# Track frame offsets:
#	150
#	15542
#	36375
#	56412
#	75855
#	97797
#	120355
#	142695
#	161177
#	182810
#	203182
#	223630
#	243235
#	258470
#	285457
#	308690
#
# Disc length: 4383 seconds
#
# Revision: 9
# Processed by: cddbd v1.5.2PL0 Copyright (c) Steve Scherf et al.
# Submitted via: EasyCDDAExtractor 15.3.0.1
#
DISCID=ca111d10
DTITLE=Whitney Houston - Waiting To Exhale
DYEAR=1995
DGENRE=Pop
TTITLE0=Whitney Houston - Exhale (Shoop Shoop)
TTITLE1=Whitney Houston - Why Does It Hurt So Bad
TTITLE2=Toni Braxton - Let It Flow
TTITLE3=Aretha Franklin - It Hurts Like Hell
TTITLE4=Brandy - Sittin' Up In My Room
TTITLE5=TLC - This Is How It Works
TTITLE6=Mary J. Blige - Not Gon' Cry
TTITLE7=Chaka Khan - My Funny Valentine
TTITLE8=Sonja Marie - And I Gave My Love To You
TTITLE9=SWV - All Night Long
TTITLE10=Chante Moore - Wey U
TTITLE11=Patti LaBelle - My Love, Sweet Love
TTITLE12=Faith Evans - Kissing You
TTITLE13=For Real - Love Will Be Waiting At Home
TTITLE14=Shanna - How Could You Call Her Baby
TTITLE15=Whitney Houston and CeCe Winans - Count On Me
EXTD=YEAR: 1995 ID3G: 24
EXTT0=
EXTT1=
EXTT2=
EXTT3=
EXTT4=
EXTT5=
EXTT6=
EXTT7=
EXTT8=
EXTT9=
EXTT10=
EXTT11=
EXTT12=
EXTT13=
EXTT14=
EXTT15=
PLAYORDER=
